<?xml version="1.0" encoding="UTF-8" standalone="no"?>
<!-- Created with Inkscape (http://www.inkscape.org/) -->

<svg
   width="85.680466mm"
   height="85.680557mm"
   viewBox="0 0 85.680466 85.680557"
   version="1.1"
   id="svg1"
   xml:space="preserve"
   sodipodi:docname="logo.svg"
   inkscape:version="1.4.2 (f4327f4, 2025-05-13)"
   xmlns:inkscape="http://www.inkscape.org/namespaces/inkscape"
   xmlns:sodipodi="http://sodipodi.sourceforge.net/DTD/sodipodi-0.dtd"
   xmlns:xlink="http://www.w3.org/1999/xlink"
   xmlns="http://www.w3.org/2000/svg"
   xmlns:svg="http://www.w3.org/2000/svg"><sodipodi:namedview
     id="namedview1"
     pagecolor="#505050"
     bordercolor="#eeeeee"
     borderopacity="1"
     inkscape:showpageshadow="0"
     inkscape:pageopacity="0"
     inkscape:pagecheckerboard="0"
     inkscape:deskcolor="#505050"
     inkscape:document-units="mm"
     inkscape:zoom="1.19352"
     inkscape:cx="46.501106"
     inkscape:cy="126.09759"
     inkscape:window-width="1920"
     inkscape:window-height="991"
     inkscape:window-x="-9"
     inkscape:window-y="-9"
     inkscape:window-maximized="1"
     inkscape:current-layer="svg1" /><defs
     id="defs1"><linearGradient
       id="linearGradient5"><stop
         style="stop-color:#6983aa;stop-opacity:1;"
         offset="0"
         id="stop5" /><stop
         style="stop-color:#ced4dc;stop-opacity:1;"
         offset="1"
         id="stop6" /></linearGradient><linearGradient
       id="linearGradient3"><stop
         style="stop-color:#6380a5;stop-opacity:1;"
         offset="0"
         id="stop3" /><stop
         style="stop-color:#d4dae1;stop-opacity:1;"
         offset="1"
         id="stop4" /></linearGradient><linearGradient
       xlink:href="#linearGradient3"
       id="linearGradient4"
       x1="47.614952"
       y1="151.22173"
       x2="94.901443"
       y2="151.22173"
       gradientUnits="userSpaceOnUse"
       gradientTransform="matrix(1.1659758,-0.03913584,0.04566642,0.9992339,-22.103087,1.1079382)" /><linearGradient
       xlink:href="#linearGradient5"
       id="linearGradient6"
       x1="98.837234"
       y1="170.00629"
       x2="121.09085"
       y2="170.00629"
       gradientUnits="userSpaceOnUse"
       gradientTransform="matrix(1.0250319,0,0,1.0250319,-5.9882446,0)" /><linearGradient
       inkscape:collect="always"
       xlink:href="#linearGradient5"
       id="linearGradient7"
       gradientUnits="userSpaceOnUse"
       gradientTransform="matrix(1.0250319,0,0,1.0250319,-11.914513,-4.875976)"
       x1="98.837234"
       y1="170.00629"
       x2="121.09085"
       y2="170.00629" /><linearGradient
       inkscape:collect="always"
       xlink:href="#linearGradient5"
       id="linearGradient8"
       gradientUnits="userSpaceOnUse"
       gradientTransform="matrix(1.0250319,0,0,1.0250319,-11.914513,-4.875976)"
       x1="98.837234"
       y1="170.00629"
       x2="121.09085"
       y2="170.00629" /></defs><g
     id="layer1"
     transform="translate(-42.263905,-107.19656)"><rect
       style="opacity:1;fill:#0a0f18;fill-opacity:1;fill-rule:evenodd;stroke-width:0;stroke-linejoin:bevel;paint-order:fill markers stroke"
       id="rect1"
       width="85.680466"
       height="85.680466"
       x="42.263905"
       y="107.19664" /><path
       id="path1"
       style="opacity:1;fill:url(#linearGradient4);fill-rule:evenodd;stroke-width:0;stroke-linejoin:bevel;paint-order:fill markers stroke"
       d="m 42.264087,107.19656 v 0.5488 85.13175 l 14.794524,1e-5 -10e-7,-40.49727 37.719854,-18.69343 -37.719854,-18.63298 v -7.85688 z" /><g
       id="text2"
       style="font-size:26.6038px;line-height:0.7;font-family:'Myanmar Text';-inkscape-font-specification:'Myanmar Text';text-align:center;text-anchor:middle;fill:url(#linearGradient6);fill-rule:evenodd;stroke-width:0;stroke-linejoin:bevel;paint-order:fill markers stroke"
       transform="scale(1.0473926,0.95475187)"
       aria-label="1757"><path
         style="font-stretch:condensed;font-family:Impact;-inkscape-font-specification:'Impact Condensed';text-align:end;text-anchor:end;fill:url(#linearGradient7)"
         d="m 100.91904,146.62836 v 21.03103 h -5.248018 v -11.27544 q 0,-2.44214 -0.11691,-2.93577 -0.11691,-0.49362 -0.6495,-0.74044 -0.51961,-0.2598 -2.338228,-0.2598 h -0.519605 v -2.45514 q 3.806113,-0.81837 5.780613,-3.36444 z m 11.28843,0 v 4.58552 l -3.35146,16.44551 h -5.22203 l 3.72817,-17.2509 h -5.18307 v -3.78013 z"
         id="path2" /><path
         style="font-stretch:condensed;font-family:Impact;-inkscape-font-specification:'Impact Condensed';text-align:end;text-anchor:end;fill:url(#linearGradient8)"
         d="m 100.93203,170.70969 v 3.36444 h -6.508058 v 3.57229 q 1.22107,-1.4419 3.14361,-1.4419 2.16936,0 3.273518,1.22107 1.11715,1.20808 1.11715,4.66346 v 3.00072 q 0,2.2343 -0.22083,3.2865 -0.20784,1.03921 -0.90931,1.93553 -0.70147,0.88333 -1.961508,1.36397 -1.24705,0.46764 -3.05268,0.46764 -2.026465,0 -3.572291,-0.70146 -1.545826,-0.71446 -2.195333,-2.1174 -0.649507,-1.40293 -0.649507,-4.3387 v -1.14313 h 5.248011 v 1.312 q 0,2.03945 0.1429,2.8968 0.14289,0.85735 0.98725,0.85735 0.3897,0 0.62352,-0.24681 0.24682,-0.24682 0.25981,-0.5326 0.026,-0.28578 0.052,-2.48111 v -4.16984 q 0,-1.1821 -0.24682,-1.61078 -0.24681,-0.42867 -0.81838,-0.42867 -0.36372,0 -0.61053,0.22083 -0.24681,0.22083 -0.32476,0.48064 -0.0649,0.24681 -0.0649,1.16911 h -5.19605 l 0.220832,-10.59995 z m 11.27544,0 v 4.58552 l -3.35146,16.44551 h -5.22203 l 3.72817,-17.2509 h -5.18307 v -3.78013 z"
         id="path3" /></g></g></svg>
